<svg xmlns:mydata="http://www.w3.org/2000/svg" xmlns="http://www.w3.org/2000/svg" xmlns:xlink="http://www.w3.org/1999/xlink" mydata:contrastcolor="11111f" mydata:template="Contrast" mydata:presentation="2.5" mydata:layouttype="undefined" mydata:specialfontid="undefined" mydata:id1="482" mydata:id2="172" mydata:companyname="evem" mydata:companytagline="" version="1.1" viewBox="0 35 550 400"><g fill="#ff7f32" fill-rule="nonzero" stroke="none" stroke-width="1" stroke-linecap="butt" stroke-linejoin="miter" stroke-miterlimit="10" stroke-dasharray="" stroke-dashoffset="0" font-family="none" font-weight="none" font-size="none" text-anchor="none" style="mix-blend-mode: normal"><g data-paper-data="{&quot;isGlobalGroup&quot;:true,&quot;bounds&quot;:{&quot;x&quot;:65,&quot;y&quot;:188.36939527826777,&quot;width&quot;:420,&quot;height&quot;:93.26120944346442}}"><g data-paper-data="{&quot;isPrimaryText&quot;:true}"><path d="M255.58914,271.81364l7.34731,-6.83351v-15.7736h-14.69463v7.91249h-23.1723v-8.11801l15.92774,-8.06663v-16.44154l-30.67375,15.46532v31.85548zM248.24183,220.84486h14.69463v-15.82498l-7.34731,-6.83351h-45.26561v39.04866l14.74601,-7.34731v-16.95534h23.1723z" data-paper-data="{&quot;glyphName&quot;:&quot;E&quot;,&quot;glyphIndex&quot;:0,&quot;firstGlyphOfWord&quot;:true,&quot;word&quot;:1}"/><path d="M309.6407,198.23774h14.69463v47.21805l-52.71569,26.2037v-16.39016l38.02106,-19.01053zM286.57117,245.19889l-14.69463,7.34731v-54.30846h14.69463z" data-paper-data="{&quot;glyphName&quot;:&quot;V&quot;,&quot;glyphIndex&quot;:1,&quot;word&quot;:1}"/><path d="M378.59241,271.81364l7.34731,-6.83351v-15.7736h-14.69463v7.91249h-23.1723v-8.11801l15.92774,-8.06663v-16.44154l-30.67375,15.46532v31.85548zM371.2451,220.84486h14.69463v-15.82498l-7.34731,-6.83351h-45.26561v39.04866l14.74601,-7.34731v-16.95534h23.1723z" data-paper-data="{&quot;glyphName&quot;:&quot;E&quot;,&quot;glyphIndex&quot;:2,&quot;word&quot;:1}"/><path d="M470.30537,224.74973l14.69463,-7.34731v54.35984h-14.69463zM432.43845,224.49283l52.56155,-26.25508v16.44154l-37.86692,18.90777v38.1752h-14.69463zM394.57153,224.49283l52.56155,-26.25508v16.44154l-37.86692,18.90777v38.1752h-14.69463zM394.57153,198.23774h14.69463v16.23602l-14.69463,7.34731z" data-paper-data="{&quot;glyphName&quot;:&quot;M&quot;,&quot;glyphIndex&quot;:3,&quot;lastGlyphOfWord&quot;:true,&quot;word&quot;:1}"/></g><g data-paper-data="{&quot;fillRule&quot;:&quot;nonzero&quot;,&quot;fillRuleOriginal&quot;:&quot;nonzero&quot;,&quot;isIcon&quot;:true,&quot;iconStyle&quot;:&quot;standalone&quot;,&quot;selectedEffects&quot;:{&quot;container&quot;:&quot;circle_simple_filled&quot;,&quot;transformation&quot;:&quot;&quot;,&quot;pattern&quot;:&quot;&quot;},&quot;bounds&quot;:{&quot;x&quot;:65,&quot;y&quot;:188.36939527826777,&quot;width&quot;:93.26120944346445,&quot;height&quot;:93.26120944346442},&quot;widthRatioIconToContainer&quot;:0.6958698712802308,&quot;heightRatioIconToContainer&quot;:0.5657896763282285,&quot;relativeBoundsIconToContainer&quot;:{&quot;top&quot;:4.578658857261425e-8,&quot;left&quot;:0},&quot;iconType&quot;:&quot;initial&quot;,&quot;initialText&quot;:&quot;M&quot;,&quot;rawInitialId&quot;:482,&quot;blockLetter&quot;:&quot;O&quot;,&quot;suitableAsStandaloneIcon&quot;:true}"><path d="M65,235c0,-25.75337 20.87724,-46.6306 46.6306,-46.6306c25.75337,0 46.6306,20.87724 46.6306,46.6306c0,25.75337 -20.87724,46.6306 -46.6306,46.6306c-25.75337,0 -46.6306,-20.87724 -46.6306,-46.6306zM133.53356,261.38312h10.54587v-39.01235l-10.54587,5.27294zM106.35767,261.38312h10.54587v-27.39714l27.1759,-13.56951v-11.79958l-37.72177,18.84245zM79.18178,261.38312h10.54587v-27.39714l27.1759,-13.56951v-11.79958l-37.72177,18.84245zM79.18177,225.54191l10.54587,-5.27294v-11.65208h-10.54587z" data-paper-data="{&quot;isPathIcon&quot;:true}"/></g></g></g></svg>